<mxfile host="app.diagrams.net" modified="2022-06-24T15:31:09.880Z" agent="5.0 (X11)" etag="53gQTsZhMBlo6PPCkJxq" version="20.0.2" type="github">
  <diagram id="JDs1bJ9GhXOm8RnmVCW5" name="Page-1">
    <mxGraphModel dx="1178" dy="727" grid="1" gridSize="10" guides="1" tooltips="1" connect="1" arrows="1" fold="1" page="1" pageScale="1" pageWidth="850" pageHeight="1100" math="0" shadow="0">
      <root>
        <mxCell id="0" />
        <mxCell id="1" parent="0" />
        <mxCell id="GcFN4PA_d2RixsND-hBG-1" value="&lt;div&gt;Barcode input&lt;/div&gt;&lt;div&gt;field&lt;/div&gt;" style="rounded=1;whiteSpace=wrap;html=1;fillColor=#dae8fc;strokeColor=#6c8ebf;" vertex="1" parent="1">
          <mxGeometry x="80" y="160" width="120" height="60" as="geometry" />
        </mxCell>
        <mxCell id="GcFN4PA_d2RixsND-hBG-2" value="&lt;div&gt;Plate Visualizer&lt;br&gt;&lt;/div&gt;" style="rounded=1;whiteSpace=wrap;html=1;fillColor=#d5e8d4;strokeColor=#82b366;" vertex="1" parent="1">
          <mxGeometry x="280" y="160" width="120" height="60" as="geometry" />
        </mxCell>
      </root>
    </mxGraphModel>
  </diagram>
</mxfile>
